<?xml version="1.0" encoding="utf-8"?>
<!-- Generator: Adobe Illustrator 26.5.0, SVG Export Plug-In . SVG Version: 6.00 Build 0)  -->
<svg version="1.1" id="레이어_1" xmlns="http://www.w3.org/2000/svg" xmlns:xlink="http://www.w3.org/1999/xlink" x="0px"
	 y="0px" viewBox="0 0 320 512" style="enable-background:new 0 0 320 512;" xml:space="preserve">
<style type="text/css">
	.st0{fill:url(#SVGID_1_);}
</style>
<linearGradient id="SVGID_1_" gradientUnits="userSpaceOnUse" x1="-7.500076e-02" y1="256" x2="320.075" y2="256">
	<stop  offset="0" style="stop-color:#2A3CEC"/>
	<stop  offset="0.8903" style="stop-color:#F522FF"/>
</linearGradient>
<path class="st0" d="M310.6,150.6c12.5-12.5,12.5-32.8,0-45.3s-32.8-12.5-45.3,0L160,210.7L54.6,105.4c-12.5-12.5-32.8-12.5-45.3,0
	s-12.5,32.8,0,45.3L114.7,256L9.4,361.4c-12.5,12.5-12.5,32.8,0,45.3s32.8,12.5,45.3,0L160,301.3l105.4,105.3
	c12.5,12.5,32.8,12.5,45.3,0s12.5-32.8,0-45.3L205.3,256L310.6,150.6z"/>
</svg>
